<mxfile host="app.diagrams.net" modified="2021-06-07T16:11:34.147Z" agent="5.0 (Windows)" etag="iwLeBEd2Fjhbeh_mFRbH" version="14.7.6" type="github">
  <diagram id="zvG8gOoKLg7x9lctHi23" name="Page-1">
    <mxGraphModel dx="1240" dy="683" grid="1" gridSize="10" guides="1" tooltips="1" connect="1" arrows="1" fold="1" page="1" pageScale="1" pageWidth="850" pageHeight="1100" math="0" shadow="0">
      <root>
        <mxCell id="0" />
        <mxCell id="1" parent="0" />
        <mxCell id="zF8SeKDar9_ll212jqUI-12" style="edgeStyle=orthogonalEdgeStyle;rounded=0;orthogonalLoop=1;jettySize=auto;html=1;entryX=0.5;entryY=0;entryDx=0;entryDy=0;" edge="1" parent="1" source="zF8SeKDar9_ll212jqUI-1" target="zF8SeKDar9_ll212jqUI-2">
          <mxGeometry relative="1" as="geometry" />
        </mxCell>
        <mxCell id="zF8SeKDar9_ll212jqUI-23" style="edgeStyle=orthogonalEdgeStyle;rounded=0;orthogonalLoop=1;jettySize=auto;html=1;exitX=1;exitY=0.5;exitDx=0;exitDy=0;entryX=0.5;entryY=0;entryDx=0;entryDy=0;" edge="1" parent="1" source="zF8SeKDar9_ll212jqUI-1" target="zF8SeKDar9_ll212jqUI-3">
          <mxGeometry relative="1" as="geometry" />
        </mxCell>
        <mxCell id="zF8SeKDar9_ll212jqUI-1" value="Safe Reinforcement Learning" style="rounded=0;whiteSpace=wrap;html=1;" vertex="1" parent="1">
          <mxGeometry x="400" y="90" width="120" height="60" as="geometry" />
        </mxCell>
        <mxCell id="zF8SeKDar9_ll212jqUI-14" style="edgeStyle=orthogonalEdgeStyle;rounded=0;orthogonalLoop=1;jettySize=auto;html=1;exitX=0;exitY=0.5;exitDx=0;exitDy=0;entryX=0.5;entryY=0;entryDx=0;entryDy=0;" edge="1" parent="1" source="zF8SeKDar9_ll212jqUI-2" target="zF8SeKDar9_ll212jqUI-4">
          <mxGeometry relative="1" as="geometry" />
        </mxCell>
        <mxCell id="zF8SeKDar9_ll212jqUI-15" style="edgeStyle=orthogonalEdgeStyle;rounded=0;orthogonalLoop=1;jettySize=auto;html=1;exitX=0.5;exitY=1;exitDx=0;exitDy=0;entryX=0.5;entryY=0;entryDx=0;entryDy=0;" edge="1" parent="1" source="zF8SeKDar9_ll212jqUI-2" target="zF8SeKDar9_ll212jqUI-6">
          <mxGeometry relative="1" as="geometry" />
        </mxCell>
        <mxCell id="zF8SeKDar9_ll212jqUI-16" style="edgeStyle=orthogonalEdgeStyle;rounded=0;orthogonalLoop=1;jettySize=auto;html=1;exitX=1;exitY=0.5;exitDx=0;exitDy=0;entryX=0.5;entryY=0;entryDx=0;entryDy=0;" edge="1" parent="1" source="zF8SeKDar9_ll212jqUI-2" target="zF8SeKDar9_ll212jqUI-5">
          <mxGeometry relative="1" as="geometry" />
        </mxCell>
        <mxCell id="zF8SeKDar9_ll212jqUI-2" value="Optimization Criterion" style="rounded=0;whiteSpace=wrap;html=1;" vertex="1" parent="1">
          <mxGeometry x="180" y="210" width="120" height="60" as="geometry" />
        </mxCell>
        <mxCell id="zF8SeKDar9_ll212jqUI-17" style="edgeStyle=orthogonalEdgeStyle;rounded=0;orthogonalLoop=1;jettySize=auto;html=1;exitX=0;exitY=0.5;exitDx=0;exitDy=0;" edge="1" parent="1" source="zF8SeKDar9_ll212jqUI-3" target="zF8SeKDar9_ll212jqUI-7">
          <mxGeometry relative="1" as="geometry" />
        </mxCell>
        <mxCell id="zF8SeKDar9_ll212jqUI-18" style="edgeStyle=orthogonalEdgeStyle;rounded=0;orthogonalLoop=1;jettySize=auto;html=1;exitX=1;exitY=0.5;exitDx=0;exitDy=0;" edge="1" parent="1" source="zF8SeKDar9_ll212jqUI-3" target="zF8SeKDar9_ll212jqUI-8">
          <mxGeometry relative="1" as="geometry" />
        </mxCell>
        <mxCell id="zF8SeKDar9_ll212jqUI-3" value="Exploration Process" style="rounded=0;whiteSpace=wrap;html=1;" vertex="1" parent="1">
          <mxGeometry x="610" y="210" width="120" height="60" as="geometry" />
        </mxCell>
        <mxCell id="zF8SeKDar9_ll212jqUI-4" value="Worst case criterion" style="rounded=0;whiteSpace=wrap;html=1;" vertex="1" parent="1">
          <mxGeometry x="20" y="360" width="120" height="60" as="geometry" />
        </mxCell>
        <mxCell id="zF8SeKDar9_ll212jqUI-5" value="Constrained Criterion" style="rounded=0;whiteSpace=wrap;html=1;" vertex="1" parent="1">
          <mxGeometry x="340" y="360" width="120" height="60" as="geometry" />
        </mxCell>
        <mxCell id="zF8SeKDar9_ll212jqUI-6" value="Risk-sensitive Criterion" style="rounded=0;whiteSpace=wrap;html=1;" vertex="1" parent="1">
          <mxGeometry x="180" y="360" width="120" height="60" as="geometry" />
        </mxCell>
        <mxCell id="zF8SeKDar9_ll212jqUI-20" style="edgeStyle=orthogonalEdgeStyle;rounded=0;orthogonalLoop=1;jettySize=auto;html=1;exitX=0.5;exitY=1;exitDx=0;exitDy=0;entryX=0.5;entryY=0;entryDx=0;entryDy=0;" edge="1" parent="1" source="zF8SeKDar9_ll212jqUI-7" target="zF8SeKDar9_ll212jqUI-11">
          <mxGeometry relative="1" as="geometry">
            <Array as="points">
              <mxPoint x="580" y="445" />
              <mxPoint x="420" y="445" />
            </Array>
          </mxGeometry>
        </mxCell>
        <mxCell id="zF8SeKDar9_ll212jqUI-21" style="edgeStyle=orthogonalEdgeStyle;rounded=0;orthogonalLoop=1;jettySize=auto;html=1;exitX=0.5;exitY=1;exitDx=0;exitDy=0;entryX=0.5;entryY=0;entryDx=0;entryDy=0;" edge="1" parent="1" source="zF8SeKDar9_ll212jqUI-7" target="zF8SeKDar9_ll212jqUI-9">
          <mxGeometry relative="1" as="geometry" />
        </mxCell>
        <mxCell id="zF8SeKDar9_ll212jqUI-22" style="edgeStyle=orthogonalEdgeStyle;rounded=0;orthogonalLoop=1;jettySize=auto;html=1;exitX=0.5;exitY=1;exitDx=0;exitDy=0;entryX=0.5;entryY=0;entryDx=0;entryDy=0;" edge="1" parent="1" source="zF8SeKDar9_ll212jqUI-7" target="zF8SeKDar9_ll212jqUI-10">
          <mxGeometry relative="1" as="geometry" />
        </mxCell>
        <mxCell id="zF8SeKDar9_ll212jqUI-7" value="External knowledge" style="rounded=0;whiteSpace=wrap;html=1;" vertex="1" parent="1">
          <mxGeometry x="520" y="360" width="120" height="60" as="geometry" />
        </mxCell>
        <mxCell id="zF8SeKDar9_ll212jqUI-8" value="Risk-directed Exploration" style="rounded=0;whiteSpace=wrap;html=1;" vertex="1" parent="1">
          <mxGeometry x="690" y="360" width="120" height="60" as="geometry" />
        </mxCell>
        <mxCell id="zF8SeKDar9_ll212jqUI-9" value="Getting a policy from demonstrations" style="rounded=0;whiteSpace=wrap;html=1;" vertex="1" parent="1">
          <mxGeometry x="520" y="470" width="120" height="60" as="geometry" />
        </mxCell>
        <mxCell id="zF8SeKDar9_ll212jqUI-10" value="Teacher Advice" style="rounded=0;whiteSpace=wrap;html=1;" vertex="1" parent="1">
          <mxGeometry x="680" y="470" width="120" height="60" as="geometry" />
        </mxCell>
        <mxCell id="zF8SeKDar9_ll212jqUI-11" value="Providing initial knowledge" style="rounded=0;whiteSpace=wrap;html=1;" vertex="1" parent="1">
          <mxGeometry x="360" y="470" width="120" height="60" as="geometry" />
        </mxCell>
      </root>
    </mxGraphModel>
  </diagram>
</mxfile>
